<svg width="104" height="51" viewBox="0 0 104 51" fill="none" xmlns="http://www.w3.org/2000/svg">
<path d="M40.1204 37.854V27.4036C42.6601 27.4036 47.6504 26.9311 47.8286 32.3108C48.0069 37.6904 42.8829 37.854 40.1204 37.854Z" stroke="#0080C9" stroke-width="2.3" stroke-linecap="round" stroke-linejoin="round"/>
<path d="M27.2659 38.3861V27.2779L35.0024 38.3861L35.4219 26.8613" stroke="#0080C9" stroke-width="2.3" stroke-linecap="round" stroke-linejoin="round"/>
<path d="M94.1982 37.3221V26.2139L101.935 37.3221L102.354 25.7974" stroke="#0080C9" stroke-width="2.3" stroke-linecap="round" stroke-linejoin="round"/>
<path d="M63.037 7.66797V19.3701L54.4377 7.93393V25.7087M62.1062 37.0118H54.4377V31.2494M54.4377 31.2494H61.7072M54.4377 31.2494V25.7087M54.4377 25.7087H62.1062" stroke="#0080C9" stroke-width="2.3" stroke-linecap="round" stroke-linejoin="round"/>
<path d="M40.6523 19.6805V7.93408H46.858C48.631 7.93408 50.5371 11.9678 46.592 13.6965" stroke="#0080C9" stroke-width="2.3" stroke-linecap="round" stroke-linejoin="round"/>
<path d="M80.7231 37.2777V25.5312H86.9288C88.7018 25.5312 90.6079 29.5649 86.6628 31.2936" stroke="#0080C9" stroke-width="2.3" stroke-linecap="round" stroke-linejoin="round"/>
<path d="M40.6523 13.8296H45.7498L49.4289 19.5033" stroke="#0080C9" stroke-width="2.3" stroke-linecap="round" stroke-linejoin="round"/>
<path d="M80.7231 31.4268H85.8206L89.4997 37.1005" stroke="#0080C9" stroke-width="2.3" stroke-linecap="round" stroke-linejoin="round"/>
<path d="M2.133 8.06689L2.00002 19.5473L10.9982 19.5473" stroke="#0080C9" stroke-width="2.3" stroke-linecap="round" stroke-linejoin="round"/>
<path d="M22.3013 8.06689H14.4113V13.4747M14.4113 13.4747H21.6807M14.4113 13.4747V19.5473H22.3013" stroke="#0080C9" stroke-width="2.3" stroke-linecap="round" stroke-linejoin="round"/>
<path d="M25.9804 19.6806L27.5122 16.0015M36.1754 19.6806L34.5615 16.0015M34.5615 16.0015L30.9449 7.75684L27.5122 16.0015M34.5615 16.0015H27.5122" stroke="#0080C9" stroke-width="2.3" stroke-linecap="round" stroke-linejoin="round"/>
<path d="M13.8793 38.785L15.4111 35.106M24.0743 38.785L22.4605 35.106M22.4605 35.106L18.8439 26.8613L15.4111 35.106M22.4605 35.106H15.4111" stroke="#0080C9" stroke-width="2.3" stroke-linecap="round" stroke-linejoin="round"/>
<path d="M66.0955 37.2777L67.6273 33.5987M76.2905 37.2777L74.6766 33.5987M74.6766 33.5987L71.06 25.354L67.6273 33.5987M74.6766 33.5987H67.6273" stroke="#0080C9" stroke-width="2.3" stroke-linecap="round" stroke-linejoin="round"/>
<circle cx="54.881" cy="2.34928" r="2.34928" fill="#F17D01"/>
<circle cx="94.1539" cy="19.9909" r="2.34928" fill="#F17D01"/>
<path d="M91.4056 49.2467V44.0605H92.3365L93.9322 49.2467L95.7053 44.0605H96.4145V49.2467" stroke="black" stroke-width="1.3" stroke-linecap="round" stroke-linejoin="round"/>
<path d="M59.1807 49.1652V46.7273M62.0175 46.7273C62.3574 46.6238 63.037 46.1422 63.037 45.0429C63.037 43.6245 60.5104 44.0234 59.1807 44.0234V46.7273M62.0175 46.7273H59.1807M62.0175 46.7273C62.3574 46.8307 63.037 47.4631 63.037 49.1652" stroke="black" stroke-width="1.3" stroke-linecap="round" stroke-linejoin="round"/>
<path d="M79.2161 49.2541V46.8161M82.0529 46.8161C82.3928 46.7127 83.0724 46.231 83.0724 45.1317C83.0724 43.7133 80.5458 44.1122 79.2161 44.1122V46.8161M82.0529 46.8161H79.2161M82.0529 46.8161C82.3928 46.9196 83.0724 47.5519 83.0724 49.2541" stroke="black" stroke-width="1.3" stroke-linecap="round" stroke-linejoin="round"/>
<path d="M53.3297 49.2019V44.1044C54.7038 44.1044 56.8314 43.8114 56.8314 45.3012C56.8314 47.2072 54.6742 46.8969 53.5513 46.764" stroke="black" stroke-width="1.3" stroke-linecap="round" stroke-linejoin="round"/>
<path d="M19.2428 49.2906L19.8575 47.6949M23.5424 49.2906L22.8884 47.6949M22.8884 47.6949L21.3261 43.8828L19.8575 47.6949M22.8884 47.6949H19.8575" stroke="black" stroke-width="1.3" stroke-linecap="round" stroke-linejoin="round"/>
<path d="M85.1556 49.2906L85.7704 47.6949M89.4553 49.2906L88.8013 47.6949M88.8013 47.6949L87.239 43.8828L85.7704 47.6949M88.8013 47.6949H85.7704" stroke="black" stroke-width="1.3" stroke-linecap="round" stroke-linejoin="round"/>
<path d="M25.6701 43.9717V49.4238" stroke="black" stroke-width="1.3" stroke-linecap="round" stroke-linejoin="round"/>
<path d="M34.9786 43.7944V49.2465" stroke="black" stroke-width="1.3" stroke-linecap="round" stroke-linejoin="round"/>
<path d="M28.3297 49.3795V43.9717L32.2304 49.3795V43.9717" stroke="black" stroke-width="1.3" stroke-linecap="round" stroke-linejoin="round"/>
<path d="M37.6382 49.2906V43.8828L41.5389 49.2906V43.8828" stroke="black" stroke-width="1.3" stroke-linecap="round" stroke-linejoin="round"/>
<path d="M48.0104 44.8136C47.8332 43.8384 43.6871 42.8408 43.7995 46.5868C43.9324 51.0193 48.6754 49.2463 48.3651 47.0743C48.3337 46.8549 47.4786 46.897 46.6807 46.897M48.498 49.6895L48.4537 47.0299" stroke="black" stroke-width="1.3" stroke-linecap="round" stroke-linejoin="round"/>
<path d="M76.337 44.779C76.1598 43.8038 72.0137 42.8061 72.1261 46.5521C72.259 50.9847 77.002 49.2117 76.6917 47.0397C76.6603 46.8203 75.8052 46.8624 75.0073 46.8624M76.8246 49.6548L76.7803 46.9953" stroke="black" stroke-width="1.3" stroke-linecap="round" stroke-linejoin="round"/>
<path d="M7.36346 44.0605H9.3803M11.3971 44.0605H9.3803M9.3803 44.0605V49.0251" stroke="black" stroke-width="1.3" stroke-linecap="round" stroke-linejoin="round"/>
<path d="M13.2589 49.1579V46.7199M16.0957 46.7199C16.4356 46.6165 17.1152 46.1348 17.1152 45.0356C17.1152 43.6171 14.5886 44.0161 13.2589 44.0161V46.7199M16.0957 46.7199H13.2589M16.0957 46.7199C16.4356 46.8234 17.1152 47.4558 17.1152 49.1579" stroke="black" stroke-width="1.3" stroke-linecap="round" stroke-linejoin="round"/>
<path d="M70.0554 46.6755C70.0554 48.1956 68.9157 49.35 67.6026 49.35C66.2894 49.35 65.1498 48.1956 65.1498 46.6755C65.1498 45.1555 66.2894 44.0011 67.6026 44.0011C68.9157 44.0011 70.0554 45.1555 70.0554 46.6755Z" stroke="black" stroke-width="1.3"/>
</svg>
